<svg xmlns="http://www.w3.org/2000/svg" width="64" height="64" viewBox="0 0 64 64"><circle cx="32" cy="32" r="28" fill="#fff"/><path d="M55 33c0-2-.2-3.6-.6-5.2H32v9.8h12.8c-.5 3-2.2 5.6-4.8 7.3v6h7.8C52.4 46.7 55 40.6 55 33z" fill="#4285F4"/><path d="M32 56c6.5 0 12-2.1 15.9-5.8l-7.8-6c-2.1 1.4-4.8 2.3-8.1 2.3-6.2 0-11.5-4.2-13.4-9.9h-8v6.2C14.5 50.6 22.6 56 32 56z" fill="#34A853"/><path d="M18.6 36.6c-.5-1.4-.8-3-.8-4.6s.3-3.2.8-4.6v-6.2h-8A23.8 23.8 0 0 0 8 32c0 3.9.9 7.5 2.6 10.8l8-6.2z" fill="#FBBC05"/><path d="M32 17.5c3.5 0 6.7 1.2 9.2 3.6l6.9-6.9C44 10.3 38.5 8 32 8c-9.4 0-17.5 5.4-21.4 13.2l8 6.2c1.9-5.7 7.2-9.9 13.4-9.9z" fill="#EA4335"/></svg>